<?xml version="1.0" encoding="utf-8"?>
<!-- Generator: Adobe Illustrator 16.0.4, SVG Export Plug-In . SVG Version: 6.00 Build 0)  -->
<!DOCTYPE svg PUBLIC "-//W3C//DTD SVG 1.1//EN" "http://www.w3.org/Graphics/SVG/1.1/DTD/svg11.dtd">
<svg version="1.1" id="Layer_1" xmlns="http://www.w3.org/2000/svg" xmlns:xlink="http://www.w3.org/1999/xlink" x="0px" y="0px"
	 width="800px" height="600px" viewBox="0.5 800.5 800 600" enable-background="new 0.5 800.5 800 600" xml:space="preserve">
<g>
	<path fill="#164A84" d="M698.809,1081.801H592.6c-1.646,0-2.992,1.346-2.992,2.992v68.812c0,1.645,1.346,2.99,2.992,2.99h50.112
		c1.646,0,3.8-1.076,4.787-2.393l52.506-70.008C700.992,1082.879,700.454,1081.801,698.809,1081.801z"/>
	<path fill="#164A84" d="M582.877,1081.801h-68.812c-1.645,0-2.992,1.346-2.992,2.992v68.812c0,1.645,1.348,2.99,2.992,2.99h68.812
		c1.645,0,2.99-1.346,2.99-2.99v-68.812C585.867,1083.146,584.521,1081.801,582.877,1081.801z M559.541,1140.59H537.4v-42.783
		h21.422v8.557h-12.865v8.557h11.25v8.557h-11.25v8.557h13.584V1140.59z"/>
	<path fill="#164A84" d="M504.342,1081.801h-68.812c-1.646,0-2.992,1.346-2.992,2.992v68.812c0,1.645,1.347,2.99,2.992,2.99h68.812
		c1.645,0,2.992-1.346,2.992-2.99v-68.812C507.334,1083.146,505.986,1081.801,504.342,1081.801z M486.332,1138.025
		c-3.291,1.855-7.001,2.873-11.07,2.873c-28.242,0-29.679-42.307,0-43.383c5.087-0.18,9.215,1.314,9.994,1.555l-1.019,8.678
		c-1.675-0.719-4.428-1.676-8.976-1.557c-17.293,0.598-16.515,26.148,0,26.148c0.779,0,1.616-0.119,2.395-0.238v-12.865h8.676
		V1138.025z"/>
	<g>
		<path fill="#164A84" d="M425.806,1081.801h-68.812c-1.646,0-2.991,1.346-2.991,2.992v68.812c0,1.645,1.346,2.99,2.991,2.99h68.812
			c1.646,0,2.992-1.346,2.992-2.99v-68.812C428.798,1083.146,427.451,1081.801,425.806,1081.801z M397.204,1140.59l-8.617-16.334
			h-4.128v16.334h-8.557v-42.783h16.874c15.259,0,16.754,21.482,4.188,25.133l9.934,17.65H397.204z"/>
		<path fill="#164A84" d="M391.998,1106.363h-7.539v9.574h7.539C397.802,1115.938,397.802,1106.363,391.998,1106.363z"/>
	</g>
	<g>
		<path fill="#164A84" d="M347.271,1081.801h-68.812c-1.646,0-2.991,1.346-2.991,2.992v68.812c0,1.645,1.346,2.99,2.991,2.99h68.812
			c1.646,0,2.992-1.346,2.992-2.99v-68.812C350.263,1083.146,348.917,1081.801,347.271,1081.801z M321.69,1141.369l-1.734-4.607
			h-14.182l-1.676,4.607h-9.693l18.011-44.34h0.897l18.012,44.34H321.69z"/>
		<polygon fill="#164A84" points="308.886,1128.742 316.784,1128.742 312.896,1117.613 		"/>
	</g>
	<g>
		<path fill="#164A84" d="M268.736,1081.801h-68.812c-1.646,0-2.992,1.346-2.992,2.992v68.812c0,1.645,1.346,2.99,2.992,2.99h68.812
			c1.646,0,2.991-1.346,2.991-2.99v-68.812C271.728,1083.146,270.382,1081.801,268.736,1081.801z M236.484,1140.621H219.55v-42.844
			h16.935c7.599,0,12.326,5.445,12.147,12.984c-0.12,3.23-1.257,6.582-3.949,8.438c2.812,1.914,4.428,5.205,4.428,8.557
			C249.11,1134.936,243.426,1140.621,236.484,1140.621z"/>
		<path fill="#164A84" d="M235.767,1123.508h-7.6v8.557h5.146h2.453c2.453,0,4.309-1.916,4.309-4.309
			C240.075,1125.361,238.22,1123.508,235.767,1123.508z"/>
		<path fill="#164A84" d="M235.767,1114.951c2.453,0,3.949-1.975,3.949-4.309c0-2.395-1.496-4.309-3.949-4.309h-7.6v8.617h5.146
			H235.767z"/>
	</g>
	<path fill="#164A84" d="M190.201,1044.404h-50.113c-1.646,0-3.417,1.277-3.938,2.838l-35.505,106.516
		c-0.521,1.561,0.399,2.838,2.045,2.838h87.511c1.646,0,2.991-1.346,2.991-2.99v-106.211
		C193.192,1045.75,191.847,1044.404,190.201,1044.404z"/>
</g>
</svg>
