<?xml version="1.0" encoding="utf-8"?>
<!-- Generator: Adobe Illustrator 16.0.4, SVG Export Plug-In . SVG Version: 6.00 Build 0)  -->
<!DOCTYPE svg PUBLIC "-//W3C//DTD SVG 1.1//EN" "http://www.w3.org/Graphics/SVG/1.1/DTD/svg11.dtd">
<svg version="1.1" id="Layer_1" xmlns="http://www.w3.org/2000/svg" xmlns:xlink="http://www.w3.org/1999/xlink" x="0px" y="0px"
	 width="800px" height="600px" viewBox="0.5 800.5 800 600" enable-background="new 0.5 800.5 800 600" xml:space="preserve">
<g>
	<path d="M389.53,1153.605c0,1.645-1.346,2.99-2.991,2.99h-87.511c-1.646,0-2.565-1.277-2.045-2.838l35.505-106.516
		c0.521-1.561,2.292-2.838,3.938-2.838h50.113c1.646,0,2.991,1.346,2.991,2.99V1153.605z"/>
	<path d="M451.162,1154.203c-0.987,1.316-3.142,2.393-4.787,2.393h-50.112c-1.646,0-2.992-1.346-2.992-2.99v-68.812
		c0-1.646,1.346-2.992,2.992-2.992h106.209c1.646,0,2.184,1.078,1.196,2.395L451.162,1154.203z"/>
</g>
</svg>
